<svg width="180" height="50" viewBox="0 0 180 50" fill="none" xmlns="http://www.w3.org/2000/svg">
<path fill-rule="evenodd" clip-rule="evenodd" d="M86.1636 2.70767C86.0081 2.70767 85.94 2.65158 85.94 2.53897V2.12945C85.94 2.0316 86.0081 1.98858 86.1636 1.98858H86.4286C86.2752 1.76336 86.205 1.46771 86.205 1.18387C86.205 0.394764 86.6664 0 87.6017 0C87.7546 0 88.0359 0.0143397 88.2595 0.0843512C88.3577 0.0991126 88.4133 0.155206 88.4133 0.225218V0.606485C88.4133 0.704754 88.3577 0.747773 88.2315 0.747773H87.7429C87.2523 0.747773 87.0429 0.902136 87.0429 1.31208C87.0429 1.63683 87.1691 1.87555 87.3367 1.97508H88.3151C88.4693 1.97508 88.5387 2.01684 88.5387 2.11595V2.53897C88.5387 2.65158 88.4693 2.70767 88.3151 2.70767H86.1636ZM19.0213 1.63684C18.8537 1.63684 18.7284 1.76337 18.7284 1.91857V10.3811C18.7284 12.031 19.5395 12.3697 20.8109 12.3697H21.7892V12.3697H30.2862V12.3696H31.2935C31.8932 12.3696 32.7052 12.2566 33.2213 11.8901C33.7107 12.2844 34.4939 12.3696 35.2056 12.3696H35.3626L35.3733 12.3697H36.2689C37.0232 12.3697 38.17 12.3267 38.5745 12.2153C38.7981 12.1154 38.8541 11.988 38.8963 11.805C38.9519 11.298 38.9657 10.635 38.9657 10.1268V1.93207C38.9657 1.76337 38.8541 1.63684 38.6995 1.63684H37.4282C37.2744 1.63684 37.149 1.76337 37.149 1.93207V10.099C37.149 10.5507 37.0508 10.565 36.604 10.565H35.3733H35.3732V10.5649H35.038C34.7873 10.5649 34.2423 10.5211 34.1291 10.3241V6.00829C34.1291 5.85309 34.0171 5.74048 33.8641 5.74048H32.6492C32.482 5.74048 32.37 5.85309 32.37 6.00829V10.0837C32.37 10.5211 31.879 10.5649 31.558 10.5649H30.2579L30.2522 10.565H30.1466C29.9928 10.565 29.9226 10.5211 29.8256 10.3659C29.7588 10.2701 29.6145 9.92646 29.4368 9.50345C29.3533 9.30455 29.2624 9.0881 29.1687 8.87161C28.0495 6.31872 26.5817 5.50094 24.5419 5.50094C24.0525 5.50094 23.6346 5.52962 23.1723 5.62746C22.9905 5.67048 22.8932 5.75483 22.8932 5.89612V6.9387C22.8932 7.10909 22.9905 7.17995 23.1874 7.16519C23.3968 7.15127 23.8155 7.13693 23.9409 7.13693C25.7166 7.13693 26.6662 7.8982 27.2115 9.09725L27.8681 10.565H21.789L21.7813 10.565H21.3291C20.8109 10.565 20.5451 10.479 20.5451 9.84505V1.91857C20.5451 1.76337 20.4473 1.63684 20.2659 1.63684H19.0213ZM1.14666 7.2643C0.937698 7.2643 0.89507 7.33431 0.852442 7.54645C0.74044 8.15167 0.656855 8.98464 0.656855 9.40766C0.656855 12.3266 1.95659 13.8639 5.15828 13.8639C6.1638 13.8639 7.17015 13.7796 7.95208 13.6531C8.16146 13.6105 8.25967 13.5118 8.25967 13.3431C8.30272 12.6801 8.31693 11.8049 8.31693 11.1288V8.8016C8.31693 7.55995 8.86148 7.15127 9.923 7.15127C10.1896 7.15127 10.3292 7.16519 10.664 7.20778V12.0727C10.664 12.2419 10.776 12.3697 10.9294 12.3697H12.1597C12.3277 12.3697 12.4393 12.2419 12.4393 12.0727V5.96613C12.4393 5.78309 12.3553 5.72658 12.2023 5.68398C11.6845 5.57095 10.8734 5.50094 10.2164 5.50094C7.8125 5.50094 6.54118 6.47351 6.54118 8.6329V9.87286C6.54118 10.635 6.54118 11.0723 6.49981 12.0162C6.1078 12.0727 5.70241 12.101 5.19966 12.101C2.69673 12.101 2.37576 10.635 2.37576 8.67381C2.37576 8.40557 2.41714 7.94079 2.45977 7.53169C2.45977 7.34865 2.37576 7.2643 2.22239 7.2643H1.14666ZM58.4765 13.5965H57.3995C57.2323 13.5965 57.079 15.0499 57.079 15.0499C57.079 15.2043 57.2323 15.3451 57.3995 15.3451H58.4765C58.6583 15.3451 58.8263 15.2043 58.8263 15.0499V13.9204C58.8263 13.7374 58.6583 13.5965 58.4765 13.5965ZM11.5861 29.3942L8.62391 37.715H18.7L15.8084 29.3942L13.7263 23.978L11.5861 29.3942ZM12.4674 19.8161H14.9407C16.1894 19.8161 16.4107 20.2953 16.8052 21.1491L16.841 21.2265C17.1205 21.9456 27.3939 48.7726 27.3939 48.7726C27.3939 48.7726 27.3939 49.6609 26.3169 49.6609H23.8023C23.1875 49.6609 22.9347 49.0265 22.9347 49.0265L20.0982 41.0866H7.35248L4.48596 49.0265C4.48596 49.0265 4.22017 49.6609 3.63466 49.6609H0.992144C0 49.6609 0 48.7726 0 48.7726C0 48.7726 10.3435 21.9456 10.6089 21.2265C10.9437 20.3244 11.3349 19.8161 12.4674 19.8161ZM98.6012 35.8112V46.0093H105.199C108.315 46.0093 110.188 44.0899 110.188 40.9735C110.188 37.9685 108.315 35.8112 105.199 35.8112H98.6012ZM104.71 23.4551H98.6012V32.3836H104.71C107.448 32.3836 109.196 30.5212 109.196 28.0252C109.196 25.3601 107.448 23.4551 104.71 23.4551ZM104.71 19.8161C109.81 19.8161 113.431 22.5668 113.431 27.5178C113.431 30.5212 111.949 32.9188 109.558 33.8927C112.648 34.9365 114.423 37.9685 114.423 41.0866C114.423 46.8832 110.188 49.6609 104.946 49.6609H95.7085C94.3666 49.6609 94.3666 48.7726 94.3666 48.3931V21.2265C94.3666 20.973 94.6177 19.8161 95.7085 19.8161H104.71ZM77.9024 46.2333C81.9136 46.2333 84.8904 44.3442 86.1488 43.2017C86.484 42.8491 87.0152 42.5956 87.3499 43.2017C87.8681 43.7373 88.4825 44.4998 88.6079 44.7107C88.6273 44.7498 88.6468 44.7882 88.666 44.8258C88.8957 45.2774 89.0758 45.6313 88.4825 46.0093C87.0152 47.2497 83.396 50 77.6516 50C68.7625 50 62.683 43.2017 62.683 34.5287C62.683 25.9805 69.0416 19.4497 77.6516 19.4497C82.7138 19.4497 86.0465 21.6297 87.6354 22.6689L87.7872 22.7681L87.8681 22.8208C88.4825 23.2581 87.8681 24.1042 87.8681 24.1042C87.8681 24.1042 87.3499 24.9785 87.0152 25.614C86.387 26.2623 86.1488 26.2623 85.0865 25.614C83.6191 24.6119 81.1317 23.2581 77.6516 23.2581C71.1517 23.2581 66.9169 28.3786 66.9169 34.5287C66.9169 40.9735 71.405 46.2333 77.9024 46.2333ZM5.82876 14.8378C5.66117 14.8378 5.50737 14.9504 5.50737 15.1343V16.1364C5.50737 16.2907 5.66117 16.4181 5.82876 16.4181H6.77911C6.93249 16.4181 7.0867 16.2907 7.0867 16.1364V15.1343C7.0867 14.9504 6.93249 14.8378 6.77911 14.8378H5.82876ZM2.92189 15.1343C2.92189 14.9504 3.06148 14.8378 3.24369 14.8378H4.16437C4.34616 14.8378 4.48575 14.9504 4.48575 15.1343V16.1364C4.48575 16.2907 4.33195 16.4181 4.16437 16.4181H3.24369C3.06148 16.4181 2.92189 16.2907 2.92189 16.1364V15.1343ZM12.9561 14.373C12.9561 14.2304 13.0406 14.1604 13.1939 14.1604H13.4873C14.5355 14.1604 14.9128 14.0613 14.9128 12.9057V6.00829C14.9128 5.85309 15.0249 5.74048 15.192 5.74048H16.4086C16.562 5.74048 16.6735 5.85309 16.6735 6.00829V12.6948C16.6735 13.4131 16.6322 14.0756 16.353 14.6269C15.9205 15.4295 15.2058 15.726 14.0327 15.726C13.8793 15.726 13.3895 15.726 13.1526 15.6834C13.0264 15.6551 12.9561 15.5708 12.9561 15.416V14.373ZM24.7235 13.9204C24.7235 13.7374 24.8773 13.5965 25.0453 13.5965H26.1218C26.3028 13.5965 26.4704 13.7374 26.4704 13.9204V15.0499C26.4704 15.2043 26.3028 15.3451 26.1218 15.3451H25.0453C24.8773 15.3451 24.7235 15.2043 24.7235 15.0499V13.9204ZM33.6965 3.32807C33.6965 3.14587 33.8641 3.00331 34.0313 3.00331H35.0109C35.1923 3.00331 35.3319 3.14587 35.3319 3.32807V4.42801C35.3319 4.59755 35.1923 4.73842 35.0109 4.73842H34.0313C33.8641 4.73842 33.6965 4.59755 33.6965 4.42801V3.32807ZM31.4467 3.00331C31.2645 3.00331 31.1115 3.14587 31.1115 3.32807V4.42801C31.1115 4.59755 31.2645 4.73842 31.4467 4.73842H32.4113C32.5793 4.73842 32.7611 4.59755 32.7611 4.42801V3.32807C32.7611 3.14587 32.5939 3.00331 32.4113 3.00331H31.4467ZM40.7547 1.91857C40.7547 1.76337 40.8667 1.63684 41.0338 1.63684H42.2918C42.4598 1.63684 42.5714 1.76337 42.5714 1.91857V12.0728C42.5714 12.228 42.4598 12.3697 42.2918 12.3697H41.0338C40.8667 12.3697 40.7547 12.228 40.7547 12.0728V1.91857ZM52.0756 14.8378C51.9214 14.8378 51.7676 14.9504 51.7676 15.1343V16.1364C51.7676 16.2907 51.9214 16.4181 52.0756 16.4181H53.0264C53.1793 16.4181 53.3335 16.2907 53.3335 16.1364V15.1343C53.3335 14.9504 53.1793 14.8378 53.0264 14.8378H52.0756ZM49.1689 15.1343C49.1689 14.9504 49.3227 14.8378 49.4907 14.8378H50.426C50.5932 14.8378 50.747 14.9504 50.747 15.1343V16.1364C50.747 16.2907 50.579 16.4181 50.426 16.4181H49.4907C49.3227 16.4181 49.1689 16.2907 49.1689 16.1364V15.1343ZM47.3793 7.2643C47.2255 7.2643 47.1273 7.36257 47.0993 7.54645C46.9877 8.15167 46.9175 8.99898 46.9175 9.40766C46.9175 12.3266 48.2039 13.8639 51.4052 13.8639C52.4241 13.8639 53.417 13.7796 54.199 13.6531C54.4083 13.6105 54.5082 13.5118 54.5082 13.3431C54.5488 12.6801 54.5626 11.8049 54.5626 11.1288V8.8016C54.5626 7.55995 55.1084 7.15127 56.1699 7.15127C56.4365 7.15127 56.5761 7.16519 56.8557 7.20778V10.5928C56.8557 12.0601 57.5256 12.3697 58.8116 12.3697H59.9015L66.4992 12.3696C67.2945 12.3696 69.377 12.3696 69.8952 12.2979C70.1878 12.2566 70.2998 12.0727 70.342 11.8901C70.4674 11.3262 70.5229 10.4519 70.5229 9.83023V9.25285C70.5229 6.45956 68.9858 5.47307 66.5962 5.47307C65.9404 5.47307 64.4999 5.55743 63.5211 6.23392V1.93201C63.5211 1.76331 63.4095 1.63678 63.2553 1.63678H61.984C61.8164 1.63678 61.7048 1.76331 61.7048 1.93201V10.5649L59.9015 10.565H59.2729C58.7844 10.565 58.6306 10.4789 58.6306 10.0702V5.96613C58.6306 5.78309 58.5466 5.72658 58.3932 5.68398C57.9026 5.58571 57.1206 5.50094 56.3788 5.50094C54.0732 5.50094 52.7881 6.48785 52.7881 8.6329V9.87286C52.7881 10.635 52.7881 11.0723 52.7459 12.0162C52.3547 12.0727 51.9497 12.101 51.4465 12.101C48.9436 12.101 48.6231 10.635 48.6231 8.67381C48.6231 8.40557 48.6506 7.94079 48.6929 7.53169C48.7066 7.34865 48.6373 7.2643 48.4551 7.2643H47.3793ZM68.4832 10.6062C68.7202 10.6062 68.7628 10.4519 68.7628 9.67584V9.46412C68.7628 7.74378 67.9671 7.19339 66.1353 7.19339C65.5055 7.19339 64.2204 7.27774 63.5212 7.79987V10.5776C63.9546 10.5927 64.4866 10.6062 65.1992 10.6062H68.4832ZM65.5757 2.63667C65.5757 2.45405 65.7286 2.31318 65.9109 2.31318H67.0154C67.183 2.31318 67.323 2.45405 67.323 2.63667V3.73787C67.323 3.907 67.183 4.04828 67.002 4.04828H65.9109C65.7027 4.04828 65.5757 3.907 65.5757 3.73787V2.63667ZM76.2113 10.6197C75.1639 10.6197 74.7297 10.1123 74.7297 9.04103V8.85799C74.7297 7.77155 75.3462 7.13681 76.4077 7.13681C76.7023 7.13681 76.9949 7.15115 77.2611 7.17983V10.6197H76.2113ZM73.7379 14.1177C73.5703 14.1177 73.4876 14.2021 73.4876 14.3585V15.388C73.4876 15.5424 73.5285 15.6133 73.7107 15.655C73.9197 15.7259 75.0669 15.7259 75.3874 15.7259C77.3023 15.7259 78.7981 15.162 78.979 12.8491V12.3695H80.2157L80.2157 12.3697H81.3269C82.0813 12.3697 83.1863 12.3267 83.577 12.2153C83.8002 12.1154 83.8562 11.988 83.8984 11.805C83.9548 11.298 83.9548 10.4933 83.9548 9.29467V7.46172C83.9548 7.16114 83.9467 6.84485 83.9368 6.45781L83.9367 6.4572C83.9331 6.31764 83.9293 6.16888 83.9256 6.00835C83.9122 5.85314 83.8282 5.74053 83.6192 5.74053H82.4461C82.2785 5.74053 82.1649 5.85314 82.1649 6.00835L82.1725 6.38261C82.1836 6.92028 82.1941 7.42852 82.1941 7.89824V10.099C82.1941 10.5507 82.0813 10.565 81.6345 10.565H80.2157L80.2157 10.5648H79.0079V6.00819C79.0079 5.85299 78.9519 5.81123 78.7697 5.74038C78.3781 5.59951 77.4281 5.50082 76.7156 5.50082C74.3109 5.50082 72.9698 6.77031 72.9698 8.98452V9.26668C72.9698 11.3114 74.1851 12.3695 76.2112 12.3695H77.2321V12.7926C77.2321 13.8638 76.4636 14.1177 75.0109 14.1177H73.7379ZM81.4666 13.5966C81.2994 13.5966 81.146 13.7375 81.146 13.9205V15.05C81.146 15.2043 81.2994 15.3452 81.4666 15.3452H82.5436C82.7254 15.3452 82.8929 15.2043 82.8929 15.05V13.9205C82.8929 13.7375 82.7254 13.5966 82.5436 13.5966H81.4666ZM86.6937 3.59721C86.5261 3.59721 86.4141 3.72331 86.4141 3.87894V12.0728C86.4141 12.228 86.5261 12.3697 86.6937 12.3697H87.9516C88.1196 12.3697 88.2316 12.228 88.2316 12.0728V3.87894C88.2316 3.72331 88.1196 3.59721 87.9516 3.59721H86.6937ZM96.2815 6.60088C96.1135 6.60088 96.0299 6.65655 96.0299 6.77042V7.33431C96.0299 7.46168 96.1135 7.53169 96.2815 7.53169H98.6707C98.8383 7.53169 98.9232 7.46168 98.9232 7.33431V6.75524C98.9232 6.62871 98.8383 6.55955 98.6707 6.55955H97.623C97.5256 6.50134 97.3994 6.2757 97.3994 5.98048C97.3994 5.62747 97.5958 5.38875 98.0284 5.38875C98.0842 5.38875 98.1962 5.39572 98.308 5.40269C98.4197 5.40964 98.5312 5.41659 98.5867 5.41659C98.7129 5.41659 98.7689 5.36007 98.7689 5.2327V4.72449C98.7689 4.59754 98.7129 4.51277 98.5867 4.48451C98.3218 4.4145 98.0564 4.40016 97.8884 4.40016C96.8812 4.40016 96.3091 4.89488 96.3091 5.81135C96.3091 6.07832 96.3784 6.41699 96.4904 6.60088H96.2815ZM94.0316 7.91251C94.185 7.91251 94.2694 7.99728 94.2694 8.1799C94.2552 8.39205 94.2552 8.71722 94.2552 8.81465C94.2552 10.1689 94.9251 10.5649 96.7844 10.5649H100.167C100.502 10.5649 100.964 10.5211 100.964 10.0837V1.93201C100.964 1.76331 101.09 1.63678 101.244 1.63678H102.5C102.655 1.63678 102.781 1.76331 102.781 1.93201V10.3241C102.893 10.5211 103.396 10.5649 103.661 10.5649H104.024V10.5651L104.037 10.565H105.352C105.673 10.565 106.162 10.5211 106.162 10.0838V6.00835C106.162 5.85314 106.274 5.74053 106.443 5.74053H107.657C107.811 5.74053 107.923 5.85314 107.923 6.00835V10.3242C108.034 10.5211 108.581 10.565 108.832 10.565H109.167L110.467 10.565C110.914 10.565 111.026 10.5507 111.026 10.099V7.85607C111.026 7.29684 111.013 6.68395 111 6.03267L110.998 5.96618C110.998 5.8114 111.11 5.69837 111.278 5.69837H112.452C112.661 5.69837 112.745 5.8114 112.759 5.96618C112.76 6.03536 112.762 6.10233 112.764 6.16731C112.765 6.23917 112.767 6.30859 112.769 6.37586C112.779 6.7814 112.787 7.10855 112.787 7.41913V9.29468C112.787 10.4933 112.787 11.298 112.731 11.805C112.689 11.988 112.634 12.1154 112.41 12.2153C112.019 12.3267 110.914 12.3697 110.161 12.3697H109.167L109.162 12.3697H108.999C108.286 12.3697 107.504 12.2845 107.015 11.8902C106.499 12.2567 105.687 12.3697 105.087 12.3697H104.037L104.024 12.3696H103.856C103.298 12.3696 102.487 12.2979 101.928 11.9744C101.425 12.2979 100.628 12.3696 99.9991 12.3696H96.4768C93.4874 12.3696 92.6052 11.2553 92.6052 9.2946C92.6052 9.11198 92.6198 8.4764 92.6901 8.19466C92.7461 7.98252 92.8016 7.91251 92.9826 7.91251H94.0316ZM106.484 3.01761C106.301 3.01761 106.148 3.15848 106.148 3.34321V4.44273C106.148 4.61185 106.273 4.75398 106.484 4.75398H107.574C107.755 4.75398 107.895 4.61185 107.895 4.44273V3.34321C107.895 3.15848 107.755 3.01761 107.587 3.01761H106.484ZM110.299 13.5966C110.132 13.5966 109.977 13.7375 109.977 13.9205V15.05C109.977 15.2043 110.132 15.3452 110.299 15.3452H111.375C111.557 15.3452 111.725 15.2043 111.725 15.05V13.9205C111.725 13.7375 111.557 13.5966 111.375 13.5966H110.299ZM32.8336 19.7756C32.5686 19.7756 31.8281 20.0304 31.8281 21.186V48.3525C31.8281 49.6203 32.8336 49.6203 32.8336 49.6203H41.5836C50.416 49.6203 56.5243 44.0494 56.5243 34.7699C56.5243 25.3196 50.416 19.7756 41.5836 19.7756H32.8336ZM35.8111 45.9688V23.4145H41.0661C47.8159 23.4145 52.0507 27.4773 52.0507 34.7699C52.0507 41.9052 47.8159 45.9688 41.0661 45.9688H35.8111Z" fill="#273239"/>
<path fill-rule="evenodd" clip-rule="evenodd" d="M173.828 25C173.828 21.906 171.585 20.3912 168.197 17.8724C164.893 15.4166 159.269 11.8038 155.921 9.8227C152.573 7.84026 147.131 4.78587 143.369 2.99538C139.581 1.19387 136.551 0 134.719 0C132.89 0 131.617 0.57197 130.717 1.7639C129.818 2.95323 129.283 4.69638 128.924 6.9019C128.565 9.10547 128.375 11.7727 128.276 14.8161C128.18 17.8614 128.172 25 128.172 25C128.172 25 128.18 32.1386 128.276 35.1833C128.375 38.2279 128.565 40.8958 128.924 43.0981C129.283 45.303 129.818 47.0468 130.717 48.2361C131.617 49.4274 132.89 50 134.719 50C136.551 50 139.581 48.8061 143.369 47.004C147.131 45.2141 152.573 42.1597 155.921 40.1767C159.269 38.1955 164.893 34.5834 168.197 32.1282C171.585 29.6088 173.828 28.094 173.828 25Z" fill="#BA1B19"/>
<path fill-rule="evenodd" clip-rule="evenodd" d="M140.329 15.5605H132.026C131.699 15.5605 131.427 15.292 131.427 14.9645V13.6863V6.717C131.427 6.38692 131.697 6.12168 132.026 6.12168H132.729C133.059 6.12168 133.328 6.38692 133.328 6.717V13.6714H139.026V11.7837H135.829C135.498 11.7837 135.229 11.5171 135.229 11.1935V4.82729C135.229 4.49981 135.493 4.23328 135.822 4.23328H140.329C140.657 4.23328 140.926 4.49721 140.926 4.8247V9.8972H142.825V6.717C142.825 6.38692 143.095 6.11974 143.423 6.11974H144.127C144.458 6.11974 144.725 6.38692 144.725 6.717V11.1935C144.725 11.5171 144.458 11.7837 144.127 11.7837H140.926V14.9645C140.926 15.292 140.657 15.5605 140.329 15.5605ZM137.125 9.89722H139.026V6.1217H137.127L137.125 9.89722ZM147.223 19.3383H147.928C148.258 19.3383 148.528 19.0699 148.528 18.743V8.60385C148.528 8.27441 148.258 8.00983 147.928 8.00983H147.223C146.895 8.00983 146.624 8.27441 146.624 8.60385V18.743C146.624 19.0699 146.895 19.3383 147.223 19.3383ZM168.823 21.2249H168.121C167.792 21.2249 167.523 21.4921 167.523 21.8209V28.1832C167.523 28.5107 167.792 28.7779 168.121 28.7779H168.823C169.152 28.7779 169.421 28.5107 169.421 28.1832V21.8209C169.421 21.4921 169.152 21.2249 168.823 21.2249ZM152.924 36.3301H153.625C153.956 36.3301 154.225 36.598 154.225 36.9248V37.6226C154.225 37.9501 153.956 38.2179 153.625 38.2179H152.924C152.591 38.2179 152.325 37.9501 152.325 37.6226V36.9248C152.325 36.598 152.591 36.3301 152.924 36.3301ZM165.024 19.3383H164.321C163.993 19.3383 163.724 19.6055 163.724 19.9324V28.7784H160.521C160.192 28.7784 159.922 29.0482 159.922 29.3718V32.5559H158.023L158.022 29.3718C158.022 29.0443 157.753 28.7758 157.425 28.7758H151.021C150.693 28.7758 150.425 29.0443 150.425 29.3718V30.0715C150.425 30.3997 150.693 30.6668 151.021 30.6668H156.124V32.5559H148.528V26.89H153.624C153.955 26.89 154.225 26.6202 154.225 26.296V25.5963C154.225 25.2694 153.955 24.9997 153.624 24.9997H147.223C146.895 24.9997 146.624 25.2681 146.624 25.5963V33.8464C146.624 34.1706 146.895 34.4436 147.223 34.4436H156.124V35.7361C156.124 36.0636 156.393 36.3301 156.721 36.3301H157.426C157.754 36.3301 158.023 36.0636 158.023 35.7361V34.4436H161.22C161.55 34.4436 161.821 34.1674 161.821 33.8412V30.6668H165.024C165.354 30.6668 165.623 30.3997 165.623 30.0715V19.9324C165.623 19.6055 165.354 19.3383 165.024 19.3383ZM145.318 36.3301H149.828C150.157 36.3301 150.425 36.598 150.425 36.9248V39.5142C150.425 39.8417 150.157 40.1076 149.828 40.1076H149.117C148.79 40.1076 148.528 39.8417 148.528 39.5142V38.2192H146.625V41.402C146.625 41.7282 146.357 41.9941 146.026 41.9941H132.028C131.701 41.9941 131.427 41.7282 131.427 41.402V36.9222C131.427 36.5954 131.693 36.3301 132.02 36.3301H142.229C142.556 36.3301 142.826 36.598 142.826 36.9274V37.6226C142.826 37.9501 142.556 38.2179 142.229 38.2179H133.328V40.1076H144.725V36.9248C144.725 36.598 144.989 36.3301 145.318 36.3301ZM134.612 43.8829H133.942C133.603 43.8829 133.328 44.1572 133.328 44.4924V45.163C133.328 45.4976 133.603 45.7713 133.942 45.7713H134.612C134.952 45.7713 135.227 45.4976 135.227 45.163V44.4924C135.227 44.1572 134.952 43.8829 134.612 43.8829ZM137.74 43.8829H138.414C138.753 43.8829 139.026 44.1572 139.026 44.4924V45.163C139.026 45.4976 138.753 45.7713 138.414 45.7713H137.74C137.404 45.7713 137.125 45.4976 137.125 45.163V44.4924C137.125 44.1572 137.404 43.8829 137.74 43.8829ZM132.043 32.557C131.703 32.557 131.427 32.832 131.427 33.1666V33.832C131.427 34.1672 131.703 34.4435 132.043 34.4435H132.713C133.053 34.4435 133.326 34.1672 133.326 33.832V33.1666C133.326 32.832 133.053 32.557 132.713 32.557H132.043ZM135.227 33.164C135.227 32.8288 135.503 32.5557 135.84 32.5557H136.511C136.851 32.5557 137.125 32.8288 137.125 33.164V33.832C137.125 34.1679 136.851 34.4435 136.511 34.4435H135.84C135.503 34.4435 135.227 34.1679 135.227 33.832V33.164ZM139.027 33.1644V33.8317C139.027 34.1676 139.304 34.4438 139.639 34.4438H143.436H144.11H144.127C144.459 34.4438 144.724 34.1734 144.724 33.8466V25.5965C144.724 25.2677 144.459 24.9999 144.127 24.9999H143.423C143.096 24.9999 142.825 25.2677 142.825 25.5965V32.5561H139.639C139.304 32.5561 139.027 32.8284 139.027 33.1644ZM156.124 25.6115C156.124 25.2762 156.399 25 156.735 25H157.408C157.748 25 158.022 25.2762 158.022 25.6115V26.282C158.022 26.6154 157.748 26.8897 157.408 26.8897H156.735C156.399 26.8897 156.124 26.6154 156.124 26.282V25.6115ZM154.837 13.6716H155.51C155.848 13.6716 156.124 13.3992 156.124 13.064V12.3967C156.124 12.0601 155.848 11.7838 155.51 11.7838H154.837C154.501 11.7838 154.225 12.0601 154.225 12.3967V13.064C154.225 13.3992 154.501 13.6716 154.837 13.6716ZM143.441 13.6716H144.11C144.45 13.6716 144.724 13.9479 144.724 14.2838V14.9524C144.724 15.2876 144.45 15.5607 144.11 15.5607H143.441C143.102 15.5607 142.825 15.2876 142.825 14.9524V14.2838C142.825 13.9479 143.102 13.6716 143.441 13.6716ZM140.314 21.2268H139.641C139.304 21.2268 139.026 21.5018 139.026 21.8351V22.5063C139.026 22.8389 139.304 23.1146 139.641 23.1146H140.314C140.652 23.1146 140.926 22.8389 140.926 22.5063V21.8351C140.926 21.5018 140.652 21.2268 140.314 21.2268ZM160.537 25H161.207C161.55 25 161.821 25.2762 161.821 25.6115V26.2801C161.821 26.6154 161.55 26.8897 161.207 26.8897H160.537C160.201 26.8897 159.922 26.6154 159.922 26.2801V25.6115C159.922 25.2762 160.201 25 160.537 25ZM132.026 30.6669H140.329C140.657 30.6669 140.926 30.3997 140.926 30.0715V25.5963C140.926 25.2695 140.657 25.0023 140.329 25.0023H137.127V19.3384H142.825V22.5062C142.825 22.8389 143.102 23.1145 143.441 23.1145H161.226C161.555 23.1145 161.821 22.8441 161.821 22.5186V16.1536C161.821 15.8281 161.556 15.5609 161.226 15.5609H156.728C156.398 15.5609 156.124 15.8281 156.124 16.1536V17.45H152.325V10.4916C152.325 10.1648 152.056 9.89697 151.726 9.89697H151.021C150.694 9.89697 150.425 10.1648 150.425 10.4916V21.2248H144.725V18.042C144.725 17.7165 144.456 17.45 144.127 17.45H135.825C135.496 17.45 135.229 17.7165 135.229 18.042V26.2986C135.229 26.6229 135.496 26.89 135.825 26.89H139.026V28.7759H133.328L133.326 18.0453C133.326 17.7191 133.058 17.45 132.728 17.45H132.026C131.699 17.45 131.427 17.7132 131.427 18.042V30.0715C131.427 30.3997 131.699 30.6669 132.026 30.6669ZM152.325 19.3384H158.022V17.45H159.922V21.2248H152.325V19.3384Z" fill="#EC0100"/>
</svg>
